<svg xmlns="http://www.w3.org/2000/svg" viewBox="0 0 75 75" shape-rendering="crispEdges"><path stroke="#181513" d="M1 1.5h7m1 0h1m2 0h1m2 0h1m1 0h1m1 0h2m3 0h1m1 0h3m2 0h2m2 0h2m1 0h2m1 0h1m1 0h1m1 0h2m2 0h2m1 0h2m3 0h2m1 0h1m2 0h1m1 0h1m1 0h7M1 2.5h1m5 0h1m1 0h2m2 0h1m2 0h3m1 0h4m1 0h1m2 0h3m1 0h2m1 0h1m1 0h1m6 0h1m3 0h2m2 0h1m1 0h6m2 0h2m3 0h1m5 0h1M1 3.5h1m1 0h3m1 0h1m1 0h3m1 0h2m2 0h3m1 0h2m2 0h1m1 0h2m1 0h1m1 0h2m1 0h1m3 0h1m2 0h1m1 0h4m2 0h1m1 0h3m3 0h3m6 0h1m1 0h3m1 0h1M1 4.5h1m1 0h3m1 0h1m2 0h2m1 0h1m1 0h1m1 0h2m3 0h2m1 0h1m3 0h2m1 0h2m1 0h3m1 0h5m1 0h1m1 0h1m3 0h1m2 0h2m1 0h3m1 0h1m1 0h2m2 0h1m1 0h3m1 0h1M1 5.5h1m1 0h3m1 0h1m1 0h8m2 0h2m1 0h10m1 0h1m3 0h1m1 0h1m2 0h8m3 0h1m2 0h1m1 0h2m1 0h1m2 0h2m1 0h1m1 0h3m1 0h1M1 6.5h1m5 0h1m3 0h1m1 0h2m4 0h3m1 0h3m3 0h2m1 0h1m1 0h1m2 0h3m1 0h5m3 0h1m2 0h2m1 0h2m3 0h1m2 0h1m3 0h1m5 0h1M1 7.5h7m1 0h1m1 0h1m1 0h1m1 0h1m1 0h1m1 0h1m1 0h1m1 0h1m1 0h1m1 0h1m1 0h1m1 0h1m1 0h1m1 0h1m1 0h1m1 0h1m1 0h1m1 0h1m1 0h1m1 0h1m1 0h1m1 0h1m1 0h1m1 0h1m1 0h1m1 0h1m1 0h1m1 0h1m1 0h1m1 0h7M14 8.5h1m2 0h1m2 0h1m1 0h4m3 0h5m1 0h7m3 0h1m3 0h2m1 0h2m1 0h1m3 0h6M1 9.5h1m2 0h6m1 0h1m1 0h3m2 0h5m2 0h5m1 0h2m2 0h1m3 0h2m3 0h9m3 0h1m1 0h2m1 0h1m1 0h1m2 0h1m2 0h1m1 0h3M1 10.5h1m1 0h1m1 0h2m3 0h1m1 0h2m3 0h1m1 0h1m2 0h2m1 0h3m1 0h3m1 0h4m1 0h2m2 0h5m3 0h4m4 0h3m4 0h1m2 0h1m2 0h1M2 11.5h3m1 0h10m1 0h1m1 0h4m1 0h3m1 0h3m1 0h5m3 0h1m1 0h2m2 0h1m3 0h1m1 0h1m2 0h1m2 0h4m2 0h1m2 0h1m1 0h1m2 0h2M2 12.5h1m11 0h1m1 0h2m2 0h1m1 0h3m6 0h1m1 0h1m1 0h1m5 0h3m1 0h1m2 0h2m2 0h1m1 0h3m9 0h1m2 0h3M1 13.5h1m3 0h1m1 0h4m1 0h3m5 0h2m2 0h3m2 0h1m2 0h4m1 0h2m3 0h1m2 0h2m3 0h1m1 0h1m1 0h4m2 0h1m5 0h3m1 0h1m2 0h1M1 14.5h1m1 0h1m1 0h1m4 0h2m1 0h4m1 0h1m3 0h3m2 0h6m1 0h1m2 0h1m1 0h1m1 0h3m1 0h7m2 0h2m1 0h1m2 0h1m1 0h1m2 0h2m1 0h2m3 0h1M1 15.5h4m2 0h1m3 0h1m1 0h3m1 0h5m1 0h2m1 0h1m1 0h1m1 0h1m3 0h1m1 0h4m1 0h2m2 0h2m1 0h2m1 0h1m1 0h1m3 0h2m2 0h3m2 0h5m1 0h2M1 16.5h2m2 0h1m8 0h4m2 0h1m2 0h5m2 0h1m2 0h2m1 0h3m1 0h3m4 0h1m1 0h1m2 0h1m3 0h1m9 0h1m1 0h5M5 17.5h6m1 0h1m1 0h1m3 0h3m1 0h2m4 0h3m1 0h1m1 0h2m4 0h1m1 0h1m2 0h4m1 0h1m1 0h3m3 0h4m1 0h1m3 0h1m1 0h1m1 0h2M2 18.5h1m1 0h1m1 0h1m1 0h3m2 0h5m1 0h2m2 0h1m2 0h2m5 0h2m1 0h1m1 0h2m1 0h1m3 0h2m2 0h2m2 0h2m1 0h7m2 0h1m2 0h1m1 0h4M1 19.5h1m1 0h1m2 0h2m2 0h1m1 0h2m7 0h1m1 0h1m2 0h1m1 0h4m1 0h7m1 0h4m2 0h1m6 0h2m2 0h1m1 0h1m1 0h1m3 0h3m4 0h1M1 20.5h1m3 0h1m3 0h1m2 0h2m1 0h4m1 0h1m3 0h1m2 0h1m2 0h2m1 0h2m1 0h2m1 0h2m1 0h8m2 0h2m1 0h3m6 0h3m2 0h3M7 21.5h1m3 0h2m6 0h1m3 0h1m1 0h1m2 0h2m2 0h1m2 0h1m1 0h1m1 0h3m1 0h2m1 0h1m1 0h2m1 0h2m1 0h2m1 0h2m2 0h1m2 0h1m2 0h1M1 22.5h1m2 0h1m3 0h6m3 0h2m10 0h17m5 0h2m2 0h1m14 0h2m1 0h1M1 23.5h2m1 0h2m1 0h1m2 0h2m5 0h1m2 0h2m3 0h1m1 0h1m3 0h1m1 0h2m1 0h5m1 0h1m2 0h3m1 0h2m1 0h1m4 0h1m2 0h2m2 0h1m3 0h1m1 0h1m1 0h2M1 24.5h1m3 0h2m1 0h1m4 0h1m1 0h2m3 0h2m1 0h2m3 0h1m2 0h1m2 0h3m1 0h1m1 0h1m2 0h2m2 0h4m1 0h2m1 0h4m1 0h2m1 0h2m1 0h1m3 0h2m1 0h1M3 25.5h10m1 0h1m5 0h1m2 0h1m1 0h5m3 0h1m2 0h3m2 0h1m1 0h7m2 0h1m2 0h1m1 0h1m2 0h4m1 0h5M1 26.5h3m1 0h1m3 0h1m1 0h2m1 0h1m2 0h1m1 0h1m1 0h1m1 0h3m3 0h1m1 0h3m2 0h1m2 0h2m1 0h4m3 0h3m1 0h1m3 0h1m1 0h5m1 0h1m3 0h2M2 27.5h4m1 0h1m1 0h2m1 0h1m2 0h2m2 0h3m1 0h1m1 0h1m1 0h1m1 0h1m2 0h1m1 0h1m1 0h2m2 0h2m1 0h1m1 0h1m1 0h1m1 0h1m1 0h2m1 0h4m4 0h4m1 0h1m1 0h2m1 0h1M1 28.5h1m3 0h1m3 0h1m1 0h1m1 0h1m1 0h2m2 0h1m3 0h1m1 0h1m3 0h1m1 0h1m7 0h2m1 0h4m3 0h1m1 0h2m7 0h4m1 0h1m3 0h2M1 29.5h9m3 0h2m2 0h3m1 0h1m2 0h10m3 0h3m2 0h1m1 0h8m2 0h1m2 0h1m2 0h12m1 0h1M1 30.5h1m1 0h2m1 0h1m1 0h6m1 0h1m1 0h1m1 0h3m1 0h2m1 0h1m1 0h2m6 0h1m5 0h2m1 0h1m1 0h2m2 0h1m2 0h1m2 0h1m5 0h2m1 0h2m1 0h1m2 0h2M2 31.5h1m1 0h4m1 0h1m2 0h1m3 0h1m3 0h1m2 0h2m1 0h4m1 0h11m2 0h3m1 0h2m2 0h2m2 0h1m2 0h3m1 0h2m2 0h4m1 0h2M1 32.5h4m3 0h1m2 0h1m1 0h1m2 0h2m1 0h1m1 0h1m3 0h1m3 0h4m1 0h3m1 0h2m2 0h1m1 0h1m3 0h1m2 0h1m1 0h2m2 0h1m1 0h4m1 0h7M3 33.5h1m3 0h4m1 0h1m1 0h1m2 0h1m1 0h1m1 0h1m1 0h1m4 0h1m1 0h3m1 0h1m1 0h2m1 0h1m1 0h3m2 0h6m1 0h2m1 0h2m1 0h3m2 0h1m2 0h1m2 0h2m1 0h1M1 34.5h3m2 0h1m1 0h1m1 0h3m2 0h2m5 0h1m1 0h1m2 0h1m3 0h1m2 0h2m1 0h3m2 0h2m4 0h1m3 0h1m2 0h2m2 0h3m1 0h1m1 0h1m2 0h2m1 0h1M6 35.5h3m1 0h2m1 0h2m3 0h6m2 0h2m1 0h3m2 0h2m1 0h1m2 0h1m1 0h1m3 0h1m1 0h2m1 0h1m4 0h2m1 0h4m1 0h2m2 0h1m4 0h1M8 36.5h1m1 0h3m1 0h2m2 0h2m2 0h1m2 0h1m5 0h3m1 0h1m4 0h1m7 0h1m3 0h1m2 0h1m1 0h2m6 0h1m1 0h2m1 0h2m1 0h1M1 37.5h1m1 0h7m2 0h3m2 0h1m2 0h3m2 0h1m5 0h1m1 0h1m1 0h1m1 0h2m1 0h3m1 0h2m1 0h1m1 0h1m2 0h3m2 0h4m6 0h1m1 0h5M1 38.5h1m7 0h1m3 0h2m1 0h1m1 0h2m1 0h2m1 0h3m2 0h4m1 0h1m1 0h1m1 0h2m2 0h4m1 0h2m1 0h1m1 0h1m2 0h1m3 0h1m2 0h1m1 0h1m1 0h3M1 39.5h4m1 0h2m5 0h2m2 0h7m3 0h2m3 0h1m3 0h2m1 0h3m2 0h4m1 0h1m1 0h1m1 0h2m5 0h2m1 0h1m2 0h2m2 0h1m1 0h2M3 40.5h1m2 0h1m2 0h1m3 0h2m3 0h1m1 0h1m3 0h2m4 0h1m4 0h2m8 0h1m1 0h1m2 0h4m2 0h1m2 0h2m1 0h11M1 41.5h1m2 0h4m2 0h3m1 0h1m5 0h1m1 0h6m1 0h1m2 0h3m2 0h1m4 0h1m1 0h1m2 0h1m1 0h2m1 0h2m3 0h1m2 0h1m1 0h4m3 0h5M2 42.5h1m1 0h2m2 0h2m3 0h1m5 0h4m1 0h1m1 0h3m2 0h1m1 0h4m1 0h1m4 0h1m4 0h1m1 0h1m4 0h4m2 0h1m2 0h1m2 0h1m1 0h2m1 0h1M1 43.5h1m3 0h3m1 0h1m2 0h3m2 0h1m4 0h3m3 0h1m7 0h3m1 0h2m1 0h1m1 0h2m1 0h1m1 0h1m1 0h1m1 0h2m1 0h1m1 0h2m2 0h3m3 0h2m2 0h1M1 44.5h3m2 0h1m2 0h1m6 0h1m2 0h1m1 0h1m3 0h2m1 0h2m1 0h1m2 0h2m1 0h2m2 0h1m1 0h3m2 0h1m1 0h4m1 0h2m3 0h2m1 0h1m3 0h4m1 0h1M2 45.5h1m1 0h8m5 0h1m1 0h1m3 0h10m1 0h1m1 0h1m1 0h1m1 0h1m1 0h1m2 0h5m2 0h2m2 0h4m2 0h9m1 0h1M1 46.5h5m3 0h2m1 0h1m1 0h2m5 0h2m1 0h2m3 0h8m1 0h3m1 0h4m3 0h2m5 0h4m4 0h2m3 0h2m1 0h1M2 47.5h2m1 0h1m1 0h1m1 0h2m2 0h2m1 0h5m2 0h3m1 0h1m1 0h2m1 0h4m1 0h1m2 0h1m1 0h1m2 0h1m1 0h1m1 0h4m2 0h2m3 0h1m4 0h1m1 0h1m1 0h1m3 0h1M1 48.5h1m2 0h2m3 0h1m1 0h2m1 0h1m2 0h1m1 0h1m2 0h4m3 0h5m2 0h2m1 0h5m1 0h1m3 0h1m2 0h1m1 0h1m1 0h1m2 0h1m4 0h2m3 0h1m1 0h1M4 49.5h6m2 0h3m1 0h2m2 0h1m4 0h6m1 0h2m1 0h3m1 0h2m3 0h6m1 0h2m1 0h3m2 0h2m3 0h7m2 0h1M1 50.5h1m1 0h2m1 0h1m4 0h1m1 0h1m2 0h1m2 0h9m2 0h2m2 0h1m4 0h1m1 0h3m1 0h4m3 0h4m1 0h2m4 0h2m4 0h1m2 0h1M4 51.5h1m2 0h3m2 0h2m2 0h1m1 0h5m1 0h4m1 0h1m4 0h1m2 0h3m1 0h1m3 0h2m1 0h2m2 0h4m4 0h1m2 0h3m1 0h1m2 0h1m2 0h1M1 52.5h1m1 0h1m1 0h1m7 0h2m2 0h1m4 0h1m1 0h2m1 0h3m1 0h3m1 0h2m2 0h1m3 0h2m1 0h1m1 0h2m1 0h2m2 0h2m2 0h1m3 0h1m3 0h1m1 0h3M2 53.5h3m1 0h4m1 0h2m6 0h2m1 0h1m1 0h1m6 0h1m6 0h4m1 0h1m2 0h1m3 0h1m1 0h1m1 0h1m5 0h1m2 0h2m1 0h1m4 0h1M1 54.5h3m4 0h6m2 0h3m2 0h1m5 0h2m1 0h2m1 0h1m1 0h2m3 0h1m1 0h3m2 0h2m2 0h8m1 0h3m1 0h1m2 0h2m1 0h4M1 55.5h2m2 0h1m1 0h1m1 0h1m2 0h2m4 0h3m2 0h3m1 0h2m2 0h1m1 0h1m1 0h1m1 0h1m1 0h3m1 0h1m2 0h1m1 0h2m1 0h1m2 0h1m1 0h2m1 0h1m1 0h1m1 0h2m4 0h1m1 0h3M1 56.5h5m6 0h2m7 0h1m2 0h1m2 0h1m1 0h2m1 0h3m2 0h1m1 0h1m2 0h2m2 0h2m1 0h3m1 0h2m1 0h1m1 0h2m2 0h2m1 0h1m3 0h2m1 0h2M4 57.5h1m1 0h3m7 0h2m2 0h4m1 0h2m1 0h2m3 0h2m1 0h1m2 0h1m3 0h4m4 0h1m2 0h5m3 0h2m1 0h1m1 0h3m2 0h1M1 58.5h4m4 0h1m1 0h3m3 0h1m2 0h2m5 0h1m1 0h3m2 0h2m2 0h2m2 0h1m1 0h4m3 0h3m9 0h2m3 0h1m1 0h2m1 0h1M1 59.5h1m2 0h1m2 0h1m1 0h1m5 0h2m1 0h2m1 0h2m1 0h5m1 0h1m1 0h1m6 0h1m1 0h2m1 0h3m2 0h2m1 0h2m1 0h1m1 0h1m1 0h3m2 0h1m1 0h1m2 0h1m1 0h3M2 60.5h3m6 0h1m1 0h5m1 0h8m2 0h1m1 0h1m1 0h4m1 0h1m4 0h4m1 0h1m1 0h1m1 0h1m3 0h2m5 0h4m4 0h3M1 61.5h3m3 0h2m2 0h5m2 0h1m3 0h1m9 0h3m2 0h1m3 0h2m1 0h2m3 0h1m1 0h1m1 0h1m1 0h2m2 0h1m1 0h2m1 0h1m5 0h1m2 0h1M1 62.5h5m2 0h2m2 0h4m1 0h4m3 0h1m1 0h2m1 0h4m5 0h2m2 0h6m2 0h1m2 0h1m2 0h1m3 0h1m1 0h1m2 0h2m2 0h1m2 0h2M1 63.5h2m1 0h1m1 0h2m1 0h1m1 0h2m1 0h3m8 0h3m1 0h2m2 0h1m1 0h2m1 0h3m1 0h3m1 0h2m1 0h1m1 0h2m3 0h1m4 0h1m2 0h4m2 0h1m1 0h2M4 64.5h2m2 0h3m2 0h1m1 0h2m3 0h2m2 0h1m1 0h3m5 0h3m2 0h2m1 0h3m1 0h1m3 0h2m1 0h1m2 0h1m2 0h1m1 0h2m6 0h1m1 0h2M1 65.5h1m3 0h1m1 0h1m4 0h2m3 0h1m3 0h11m1 0h1m1 0h1m1 0h1m1 0h1m2 0h1m2 0h5m1 0h1m2 0h1m3 0h1m1 0h2m1 0h8m2 0h1M9 66.5h2m2 0h1m1 0h1m1 0h1m3 0h1m2 0h2m3 0h1m1 0h5m1 0h5m1 0h3m3 0h1m4 0h1m2 0h1m1 0h3m3 0h1m3 0h4M1 67.5h7m1 0h1m1 0h1m3 0h1m1 0h1m1 0h1m2 0h1m1 0h2m1 0h1m1 0h2m2 0h1m1 0h7m1 0h1m1 0h1m1 0h1m1 0h1m2 0h2m2 0h1m2 0h2m2 0h3m1 0h1m1 0h1m1 0h3M1 68.5h1m5 0h1m1 0h3m1 0h2m1 0h1m3 0h2m3 0h1m3 0h1m1 0h1m2 0h3m1 0h3m1 0h2m1 0h1m3 0h1m1 0h1m7 0h1m1 0h2m1 0h2m3 0h2m1 0h1M1 69.5h1m1 0h3m1 0h1m1 0h3m3 0h2m7 0h9m1 0h1m1 0h4m1 0h2m1 0h6m2 0h2m2 0h3m2 0h2m1 0h10M1 70.5h1m1 0h3m1 0h1m1 0h1m1 0h1m2 0h1m2 0h2m1 0h3m3 0h2m1 0h4m2 0h1m1 0h8m2 0h1m1 0h1m1 0h1m1 0h1m1 0h1m5 0h1m2 0h2m1 0h2m1 0h2m1 0h1M1 71.5h1m1 0h3m1 0h1m3 0h5m2 0h3m1 0h2m2 0h2m1 0h1m3 0h4m1 0h1m7 0h3m3 0h2m2 0h2m1 0h4m1 0h3m1 0h3m1 0h2M1 72.5h1m5 0h1m5 0h2m1 0h4m4 0h3m2 0h1m3 0h1m1 0h3m1 0h1m3 0h2m2 0h1m4 0h1m1 0h6m3 0h1m3 0h2m1 0h3M1 73.5h7m1 0h1m1 0h1m2 0h2m1 0h5m4 0h1m3 0h1m2 0h1m3 0h1m2 0h2m2 0h3m1 0h1m1 0h1m1 0h3m1 0h2m2 0h1m1 0h1m2 0h1m1 0h3m1 0h3"/></svg>
